<svg width="505" height="537" viewBox="0 0 505 537" fill="none" xmlns="http://www.w3.org/2000/svg">
    <path fill-rule="evenodd" clip-rule="evenodd" d="M17.9987 0.517L243.732 0.5C248.373 0.499651 252.825 2.34324 256.107 5.62516C259.389 8.90709 261.233 13.3585 261.233 18V289.309H487.028C494.325 289.309 500.855 293.836 503.415 300.669C505.976 307.501 504.028 315.205 498.528 320L255.233 532.1C252.046 534.878 247.961 536.409 243.733 536.409H18C8.33504 536.409 0.500027 528.574 0.500027 518.909V306.954C0.499178 306.855 0.499176 306.755 0.500027 306.656V18.017C0.500027 8.35253 8.33424 0.517729 17.9987 0.517ZM35.5 347.265V501.409H199.552L35.5 347.265ZM261.233 480.436L440.323 324.309H261.233V480.436ZM226.233 324.309V478.453L62.1813 324.309H226.233ZM226.233 289.309H35.5V90.1347L226.233 90.1203V289.309ZM226.233 55.1203V35.5013L35.5 35.5157V55.1347L226.233 55.1203Z" fill="#fff" />
</svg>
